{
  "accessors": [
    {
      "bufferView": 2,
      "componentType": 5126,
      "count": 65532,
      "max": [
        4.86063814163208,
        9.559989929199219,
        1.5998769998550415
      ],
      "min": [
        -3.916145086288452,
        5.178788185119629,
        -2.2094929218292236
      ],
      "type": "VEC3"
    },
    {
      "bufferView": 2,
      "byteOffset": 786384,
      "componentType": 5126,
      "count": 65532,
      "max": [
        0.9999638199806213,
        0.9990125298500061,
        0.9998767971992493
      ],
      "min": [
        -0.9999210238456726,
        -0.9999843835830688,
        -0.9999462962150574
      ],
      "type": "VEC3"
    },
    {
      "bufferView": 1,
      "componentType": 5126,
      "count": 65532,
      "max": [
        0.9951390027999878,
        0.9993469715118408
      ],
      "min": [
        0.003790999995544553,
        0.009162000380456448
      ],
      "type": "VEC2"
    },
    {
      "bufferView": 0,
      "componentType": 5125,
      "count": 341310,
      "type": "SCALAR"
    },
    {
      "bufferView": 2,
      "byteOffset": 1572768,
      "componentType": 5126,
      "count": 65532,
      "max": [
        4.85961389541626,
        7.41242790222168,
        1.5969189405441284
      ],
      "min": [
        -3.499629020690918,
        5.056499004364014,
        -2.211621046066284
      ],
      "type": "VEC3"
    },
    {
      "bufferView": 2,
      "byteOffset": 2359152,
      "componentType": 5126,
      "count": 65532,
      "max": [
        0.999840259552002,
        0.9997072219848633,
        0.9999915957450867
      ],
      "min": [
        -0.9999336004257202,
        -0.9999935626983643,
        -0.9996190667152405
      ],
      "type": "VEC3"
    },
    {
      "bufferView": 1,
      "byteOffset": 524256,
      "componentType": 5126,
      "count": 65532,
      "max": [
        0.9962649941444397,
        0.9990350008010864
      ],
      "min": [
        0.0034020000603049994,
        0.0039519998244941235
      ],
      "type": "VEC2"
    },
    {
      "bufferView": 0,
      "byteOffset": 1365240,
      "componentType": 5125,
      "count": 332943,
      "type": "SCALAR"
    },
    {
      "bufferView": 2,
      "byteOffset": 3145536,
      "componentType": 5126,
      "count": 65532,
      "max": [
        4.873720169067383,
        9.602750778198242,
        1.4812040328979492
      ],
      "min": [
        -3.9101269245147705,
        5.084134101867676,
        -2.331350088119507
      ],
      "type": "VEC3"
    },
    {
      "bufferView": 2,
      "byteOffset": 3931920,
      "componentType": 5126,
      "count": 65532,
      "max": [
        0.9999675154685974,
        0.9999790787696838,
        0.9998835921287537
      ],
      "min": [
        -0.9997714161872864,
        -0.9999915957450867,
        -0.999947190284729
      ],
      "type": "VEC3"
    },
    {
      "bufferView": 1,
      "byteOffset": 1048512,
      "componentType": 5126,
      "count": 65532,
      "max": [
        0.9954659938812256,
        0.9975299835205078
      ],
      "min": [
        0.009623999707400799,
        0.00673400005325675
      ],
      "type": "VEC2"
    },
    {
      "bufferView": 0,
      "byteOffset": 2697012,
      "componentType": 5125,
      "count": 334371,
      "type": "SCALAR"
    },
    {
      "bufferView": 2,
      "byteOffset": 4718304,
      "componentType": 5126,
      "count": 65532,
      "max": [
        5.122156143188477,
        9.969356536865234,
        1.0144870281219482
      ],
      "min": [
        -2.876682996749878,
        5.84572696685791,
        -3.152195930480957
      ],
      "type": "VEC3"
    },
    {
      "bufferView": 2,
      "byteOffset": 5504688,
      "componentType": 5126,
      "count": 65532,
      "max": [
        0.9999030828475952,
        0.9999845027923584,
        0.9998627305030823
      ],
      "min": [
        -0.9999926686286926,
        -0.99998539686203,
        -0.9999968409538269
      ],
      "type": "VEC3"
    },
    {
      "bufferView": 1,
      "byteOffset": 1572768,
      "componentType": 5126,
      "count": 65532,
      "max": [
        0.9963330030441284,
        0.9987490177154541
      ],
      "min": [
        0.003783999942243099,
        0.0037120000924915075
      ],
      "type": "VEC2"
    },
    {
      "bufferView": 0,
      "byteOffset": 4034496,
      "componentType": 5125,
      "count": 312558,
      "type": "SCALAR"
    },
    {
      "bufferView": 2,
      "byteOffset": 6291072,
      "componentType": 5126,
      "count": 43055,
      "max": [
        5.122156143188477,
        9.972293853759766,
        1.3515219688415527
      ],
      "min": [
        -3.910053014755249,
        5.056499004364014,
        -3.1501479148864746
      ],
      "type": "VEC3"
    },
    {
      "bufferView": 2,
      "byteOffset": 6807732,
      "componentType": 5126,
      "count": 43055,
      "max": [
        0.9999862313270569,
        0.9999533891677856,
        0.9996680617332458
      ],
      "min": [
        -0.9998655319213867,
        -0.99998539686203,
        -0.9999968409538269
      ],
      "type": "VEC3"
    },
    {
      "bufferView": 1,
      "byteOffset": 2097024,
      "componentType": 5126,
      "count": 43055,
      "max": [
        0.9952229857444763,
        0.9996340274810791
      ],
      "min": [
        0.003073000116273761,
        0.003601999953389168
      ],
      "type": "VEC2"
    },
    {
      "bufferView": 0,
      "byteOffset": 5284728,
      "componentType": 5125,
      "count": 172896,
      "type": "SCALAR"
    }
  ],
  "asset": {
    "extras": {
      "author": "Neo.Jing.Ci (https://sketchfab.com/Neo.Jing.Ci)",
      "license": "CC-BY-NC-4.0 (http://creativecommons.org/licenses/by-nc/4.0/)",
      "source": "https://sketchfab.com/3d-models/jing-ci-guzheng-cb59b3ca50e040638c526607583aa5f3",
      "title": "Jing Ci Guzheng"
    },
    "generator": "Sketchfab-12.68.0",
    "version": "2.0"
  },
  "bufferViews": [
    {
      "buffer": 0,
      "byteLength": 5976312,
      "name": "floatBufferViews",
      "target": 34963
    },
    {
      "buffer": 0,
      "byteLength": 2441464,
      "byteOffset": 5976312,
      "byteStride": 8,
      "name": "floatBufferViews",
      "target": 34962
    },
    {
      "buffer": 0,
      "byteLength": 7324392,
      "byteOffset": 8417776,
      "byteStride": 12,
      "name": "floatBufferViews",
      "target": 34962
    }
  ],
  "buffers": [
    {
      "byteLength": 15742168,
      "uri": "scene.bin"
    }
  ],
  "images": [
    {
      "uri": "textures/Jing_Ci_Guzheng_baseColor.jpeg"
    }
  ],
  "materials": [
    {
      "doubleSided": true,
      "name": "Jing_Ci_Guzheng",
      "pbrMetallicRoughness": {
        "baseColorTexture": {
          "index": 0
        },
        "metallicFactor": 0.0
      }
    }
  ],
  "meshes": [
    {
      "name": "Object_0",
      "primitives": [
        {
          "attributes": {
            "NORMAL": 1,
            "POSITION": 0,
            "TEXCOORD_0": 2
          },
          "indices": 3,
          "material": 0,
          "mode": 4
        }
      ]
    },
    {
      "name": "Object_1",
      "primitives": [
        {
          "attributes": {
            "NORMAL": 5,
            "POSITION": 4,
            "TEXCOORD_0": 6
          },
          "indices": 7,
          "material": 0,
          "mode": 4
        }
      ]
    },
    {
      "name": "Object_2",
      "primitives": [
        {
          "attributes": {
            "NORMAL": 9,
            "POSITION": 8,
            "TEXCOORD_0": 10
          },
          "indices": 11,
          "material": 0,
          "mode": 4
        }
      ]
    },
    {
      "name": "Object_3",
      "primitives": [
        {
          "attributes": {
            "NORMAL": 13,
            "POSITION": 12,
            "TEXCOORD_0": 14
          },
          "indices": 15,
          "material": 0,
          "mode": 4
        }
      ]
    },
    {
      "name": "Object_4",
      "primitives": [
        {
          "attributes": {
            "NORMAL": 17,
            "POSITION": 16,
            "TEXCOORD_0": 18
          },
          "indices": 19,
          "material": 0,
          "mode": 4
        }
      ]
    }
  ],
  "nodes": [
    {
      "children": [
        1
      ],
      "matrix": [
        0.9412345886230469,
        0.03642293438315384,
        0.33578383922576904,
        0.0,
        0.18970642983913422,
        -0.8795462250709533,
        -0.43635988235473655,
        0.0,
        0.2794438898563385,
        0.47441738843917863,
        -0.8347690105438231,
        0.0,
        -1.1732001304626465,
        6.179360866546632,
        -5.085813045501707,
        1.0
      ],
      "name": "Sketchfab_model"
    },
    {
      "children": [
        2,
        3,
        4,
        5,
        6
      ],
      "name": "Jing Ci Guzheng.obj.cleaner.materialmerger.gles"
    },
    {
      "mesh": 0,
      "name": "Object_2"
    },
    {
      "mesh": 1,
      "name": "Object_3"
    },
    {
      "mesh": 2,
      "name": "Object_4"
    },
    {
      "mesh": 3,
      "name": "Object_5"
    },
    {
      "mesh": 4,
      "name": "Object_6"
    }
  ],
  "samplers": [
    {
      "magFilter": 9729,
      "minFilter": 9987,
      "wrapS": 10497,
      "wrapT": 10497
    }
  ],
  "scene": 0,
  "scenes": [
    {
      "name": "Sketchfab_Scene",
      "nodes": [
        0
      ]
    }
  ],
  "textures": [
    {
      "sampler": 0,
      "source": 0
    }
  ]
}
