{
  "accessors": [
    {
      "bufferView": 2,
      "componentType": 5126,
      "count": 35380,
      "max": [
        0.269286572933197,
        0.4745956361293793,
        0.9663301706314087
      ],
      "min": [
        -0.22011323273181915,
        -0.550261378288269,
        0.00010898223263211548
      ],
      "type": "VEC3"
    },
    {
      "bufferView": 2,
      "byteOffset": 424560,
      "componentType": 5126,
      "count": 35380,
      "max": [
        0.9998897314071655,
        0.999957263469696,
        0.9999643564224243
      ],
      "min": [
        -0.9999475479125977,
        -0.9999897480010986,
        -0.9999887347221375
      ],
      "type": "VEC3"
    },
    {
      "bufferView": 3,
      "componentType": 5126,
      "count": 35380,
      "max": [
        0.999993085861206,
        0.9999794363975525,
        0.9999825954437256,
        1.0
      ],
      "min": [
        -0.9999999403953552,
        -0.9999987483024597,
        -0.9999803304672241,
        -1.0
      ],
      "type": "VEC4"
    },
    {
      "bufferView": 1,
      "componentType": 5126,
      "count": 35380,
      "max": [
        0.99945467710495,
        0.9980514049530029
      ],
      "min": [
        -0.004899751394987106,
        0.00020787444373127073
      ],
      "type": "VEC2"
    },
    {
      "bufferView": 1,
      "byteOffset": 283040,
      "componentType": 5126,
      "count": 35380,
      "max": [
        0.99945467710495,
        0.9980514049530029
      ],
      "min": [
        -0.004899751394987106,
        0.00020787444373127073
      ],
      "type": "VEC2"
    },
    {
      "bufferView": 1,
      "byteOffset": 566080,
      "componentType": 5126,
      "count": 35380,
      "max": [
        0.99945467710495,
        0.9980514049530029
      ],
      "min": [
        -0.004899751394987106,
        0.00020787444373127073
      ],
      "type": "VEC2"
    },
    {
      "bufferView": 0,
      "componentType": 5125,
      "count": 156069,
      "type": "SCALAR"
    }
  ],
  "asset": {
    "extras": {
      "author": "mohamedhussien (https://sketchfab.com/mohamedhussien)",
      "license": "CC-BY-4.0 (http://creativecommons.org/licenses/by/4.0/)",
      "source": "https://sketchfab.com/3d-models/spinning-wheel-01-4k-dbce21719ba64993b5fbcce0c0da8e20",
      "title": "Spinning Wheel 01 4k"
    },
    "generator": "Sketchfab-12.56.0",
    "version": "2.0"
  },
  "bufferViews": [
    {
      "buffer": 0,
      "byteLength": 624276,
      "name": "floatBufferViews",
      "target": 34963
    },
    {
      "buffer": 0,
      "byteLength": 849120,
      "byteOffset": 624276,
      "byteStride": 8,
      "name": "floatBufferViews",
      "target": 34962
    },
    {
      "buffer": 0,
      "byteLength": 849120,
      "byteOffset": 1473396,
      "byteStride": 12,
      "name": "floatBufferViews",
      "target": 34962
    },
    {
      "buffer": 0,
      "byteLength": 566080,
      "byteOffset": 2322516,
      "byteStride": 16,
      "name": "floatBufferViews",
      "target": 34962
    }
  ],
  "buffers": [
    {
      "byteLength": 2888596,
      "uri": "scene.bin"
    }
  ],
  "images": [
    {
      "uri": "textures/spinning_wheel_01_baseColor.jpeg"
    },
    {
      "uri": "textures/spinning_wheel_01_metallicRoughness.png"
    },
    {
      "uri": "textures/spinning_wheel_01_normal.png"
    }
  ],
  "materials": [
    {
      "doubleSided": true,
      "name": "spinning_wheel_01",
      "normalTexture": {
        "index": 2
      },
      "occlusionTexture": {
        "index": 1
      },
      "pbrMetallicRoughness": {
        "baseColorTexture": {
          "index": 0
        },
        "metallicRoughnessTexture": {
          "index": 1
        }
      }
    }
  ],
  "meshes": [
    {
      "name": "spinning_wheel_01_spinning_wheel_01_0",
      "primitives": [
        {
          "attributes": {
            "NORMAL": 1,
            "POSITION": 0,
            "TANGENT": 2,
            "TEXCOORD_0": 3,
            "TEXCOORD_1": 4,
            "TEXCOORD_2": 5
          },
          "indices": 6,
          "material": 0,
          "mode": 4
        }
      ]
    }
  ],
  "nodes": [
    {
      "children": [
        1
      ],
      "matrix": [
        1.0,
        0.0,
        0.0,
        0.0,
        0.0,
        2.220446049250313e-16,
        -1.0,
        0.0,
        0.0,
        1.0,
        2.220446049250313e-16,
        0.0,
        0.0,
        0.0,
        0.0,
        1.0
      ],
      "name": "Sketchfab_model"
    },
    {
      "children": [
        2
      ],
      "matrix": [
        0.009999999776482582,
        0.0,
        0.0,
        0.0,
        0.0,
        0.0,
        0.009999999776482582,
        0.0,
        0.0,
        -0.009999999776482582,
        0.0,
        0.0,
        0.0,
        0.0,
        0.0,
        1.0
      ],
      "name": "spinning_wheel_01_4k.fbx"
    },
    {
      "children": [
        3
      ],
      "name": "RootNode"
    },
    {
      "children": [
        4
      ],
      "matrix": [
        100.0,
        0.0,
        0.0,
        0.0,
        0.0,
        -1.629206793918314e-05,
        -99.99999999999868,
        0.0,
        0.0,
        99.99999999999868,
        -1.629206793918314e-05,
        0.0,
        0.0,
        0.0,
        0.0,
        1.0
      ],
      "name": "spinning_wheel_01"
    },
    {
      "mesh": 0,
      "name": "spinning_wheel_01_spinning_wheel_01_0"
    }
  ],
  "samplers": [
    {
      "magFilter": 9729,
      "minFilter": 9987,
      "wrapS": 10497,
      "wrapT": 10497
    }
  ],
  "scene": 0,
  "scenes": [
    {
      "name": "Sketchfab_Scene",
      "nodes": [
        0
      ]
    }
  ],
  "textures": [
    {
      "sampler": 0,
      "source": 0
    },
    {
      "sampler": 0,
      "source": 1
    },
    {
      "sampler": 0,
      "source": 2
    }
  ]
}
