{
  "accessors": [
    {
      "bufferView": 2,
      "componentType": 5126,
      "count": 8994,
      "max": [
        1.4503117799758911,
        0.5596954822540283,
        16.668474197387695
      ],
      "min": [
        -10.206583023071289,
        -13.261070251464844,
        -0.5940142869949341
      ],
      "type": "VEC3"
    },
    {
      "bufferView": 2,
      "byteOffset": 107928,
      "componentType": 5126,
      "count": 8994,
      "max": [
        1.0,
        1.0,
        1.0
      ],
      "min": [
        -1.0,
        -1.0,
        -1.0
      ],
      "type": "VEC3"
    },
    {
      "bufferView": 3,
      "componentType": 5126,
      "count": 8994,
      "max": [
        1.0,
        1.0,
        1.0,
        1.0
      ],
      "min": [
        -1.0,
        -1.0,
        -1.0,
        -1.0
      ],
      "type": "VEC4"
    },
    {
      "bufferView": 1,
      "componentType": 5126,
      "count": 8994,
      "max": [
        1.9989123344421387,
        0.9979747533798218
      ],
      "min": [
        0.0007276108954101801,
        0.0007286686450242996
      ],
      "type": "VEC2"
    },
    {
      "bufferView": 1,
      "byteOffset": 71952,
      "componentType": 5126,
      "count": 8994,
      "max": [
        1.9989123344421387,
        0.9979747533798218
      ],
      "min": [
        0.0007276108954101801,
        0.0007286686450242996
      ],
      "type": "VEC2"
    },
    {
      "bufferView": 1,
      "byteOffset": 143904,
      "componentType": 5126,
      "count": 8994,
      "max": [
        1.9989123344421387,
        0.9979747533798218
      ],
      "min": [
        0.0007276108954101801,
        0.0007286686450242996
      ],
      "type": "VEC2"
    },
    {
      "bufferView": 0,
      "componentType": 5125,
      "count": 23346,
      "type": "SCALAR"
    }
  ],
  "asset": {
    "extras": {
      "author": "kusyash (https://sketchfab.com/kusyash)",
      "license": "CC-BY-4.0 (http://creativecommons.org/licenses/by/4.0/)",
      "source": "https://sketchfab.com/3d-models/loom-506bd89041c649c591fd60dcaf1b7316",
      "title": "Loom"
    },
    "generator": "Sketchfab-16.74.0",
    "version": "2.0"
  },
  "bufferViews": [
    {
      "buffer": 0,
      "byteLength": 93384,
      "name": "floatBufferViews",
      "target": 34963
    },
    {
      "buffer": 0,
      "byteLength": 215856,
      "byteOffset": 93384,
      "byteStride": 8,
      "name": "floatBufferViews",
      "target": 34962
    },
    {
      "buffer": 0,
      "byteLength": 215856,
      "byteOffset": 309240,
      "byteStride": 12,
      "name": "floatBufferViews",
      "target": 34962
    },
    {
      "buffer": 0,
      "byteLength": 143904,
      "byteOffset": 525096,
      "byteStride": 16,
      "name": "floatBufferViews",
      "target": 34962
    }
  ],
  "buffers": [
    {
      "byteLength": 669000,
      "uri": "scene.bin"
    }
  ],
  "images": [
    {
      "uri": "textures/Material.001_baseColor.png"
    },
    {
      "uri": "textures/Material.001_metallicRoughness.png"
    },
    {
      "uri": "textures/Material.001_normal.png"
    }
  ],
  "materials": [
    {
      "doubleSided": true,
      "name": "Material.001",
      "normalTexture": {
        "index": 2
      },
      "pbrMetallicRoughness": {
        "baseColorTexture": {
          "index": 0
        },
        "metallicRoughnessTexture": {
          "index": 1
        }
      }
    }
  ],
  "meshes": [
    {
      "name": "Loom_Material.001_0",
      "primitives": [
        {
          "attributes": {
            "NORMAL": 1,
            "POSITION": 0,
            "TANGENT": 2,
            "TEXCOORD_0": 3,
            "TEXCOORD_1": 4,
            "TEXCOORD_2": 5
          },
          "indices": 6,
          "material": 0,
          "mode": 4
        }
      ]
    }
  ],
  "nodes": [
    {
      "children": [
        1
      ],
      "matrix": [
        1.0,
        0.0,
        0.0,
        0.0,
        0.0,
        2.220446049250313e-16,
        -1.0,
        0.0,
        0.0,
        1.0,
        2.220446049250313e-16,
        0.0,
        0.0,
        0.0,
        0.0,
        1.0
      ],
      "name": "Sketchfab_model"
    },
    {
      "children": [
        2
      ],
      "matrix": [
        0.009999999776482582,
        0.0,
        0.0,
        0.0,
        0.0,
        0.0,
        0.009999999776482582,
        0.0,
        0.0,
        -0.009999999776482582,
        0.0,
        0.0,
        0.0,
        0.0,
        0.0,
        1.0
      ],
      "name": "a57813237f064cf3a0a97d369f394af5.fbx"
    },
    {
      "children": [
        3
      ],
      "name": "RootNode"
    },
    {
      "children": [
        4
      ],
      "matrix": [
        10.0,
        0.0,
        0.0,
        0.0,
        0.0,
        -2.8212996916465727e-06,
        -9.999999999999602,
        0.0,
        0.0,
        9.999999999999602,
        -2.8212996916465727e-06,
        0.0,
        47.238372802734375,
        5.960178375244141,
        -62.70164108276367,
        1.0
      ],
      "name": "Loom"
    },
    {
      "mesh": 0,
      "name": "Loom_Material.001_0"
    }
  ],
  "samplers": [
    {
      "magFilter": 9729,
      "minFilter": 9987,
      "wrapS": 10497,
      "wrapT": 10497
    }
  ],
  "scene": 0,
  "scenes": [
    {
      "name": "Sketchfab_Scene",
      "nodes": [
        0
      ]
    }
  ],
  "textures": [
    {
      "sampler": 0,
      "source": 0
    },
    {
      "sampler": 0,
      "source": 1
    },
    {
      "sampler": 0,
      "source": 2
    }
  ]
}
